HIERARCHY
ROOT HipCenter
{
    OFFSET 0.0 0.0 -0.0
    CHANNELS 6 Xposition Yposition Zposition Zrotation Xrotation Yrotation
    JOINT Spine
    {
        OFFSET 0.0 9.792454719543457 0.0
        CHANNELS 3 Zrotation Xrotation Yrotation
        JOINT ShoulderCenter
        {
            OFFSET 0.0 28.43004608154297 0.0
            CHANNELS 3 Zrotation Xrotation Yrotation
            JOINT LeftShoulder
            {
                OFFSET 18.397415161132812 0.0 0.0
                CHANNELS 3 Zrotation Xrotation Yrotation
                JOINT LeftElbow
                {
                    OFFSET 29.94125747680664 0.0 0.0
                    CHANNELS 3 Zrotation Xrotation Yrotation
                    JOINT LeftWrist
                    {
                        OFFSET 28.812496185302734 0.0 0.0
                        CHANNELS 3 Zrotation Xrotation Yrotation
                        JOINT LeftHand
                        {
                            OFFSET 3.728853225708008 0.0 0.0
                            CHANNELS 3 Zrotation Xrotation Yrotation
                            End Site
                            {
                                OFFSET 1.4915413856506348 0.0 0.0
                            }
                        }
                    }
                }
            }
            JOINT RightShoulder
            {
                OFFSET -18.397415161132812 0.0 0.0
                CHANNELS 3 Zrotation Xrotation Yrotation
                JOINT RightElbow
                {
                    OFFSET -29.94125747680664 0.0 0.0
                    CHANNELS 3 Zrotation Xrotation Yrotation
                    JOINT RightWrist
                    {
                        OFFSET -28.812496185302734 0.0 0.0
                        CHANNELS 3 Zrotation Xrotation Yrotation
                        JOINT RightHand
                        {
                            OFFSET -3.728853225708008 0.0 0.0
                            CHANNELS 3 Zrotation Xrotation Yrotation
                            End Site
                            {
                                OFFSET -1.4915413856506348 0.0 0.0
                            }
                        }
                    }
                }
            }
            End Site
            {
                OFFSET 0.0 11.372017860412598 0.0
            }
        }
    }
    JOINT LeftHip
    {
        OFFSET 14.563438415527344 0.0 0.0
        CHANNELS 3 Zrotation Xrotation Yrotation
        JOINT LeftKnee
        {
            OFFSET 0.0 -39.31314468383789 0.0
            CHANNELS 3 Zrotation Xrotation Yrotation
            JOINT LeftAnkle
            {
                OFFSET 0.0 -42.28584671020508 0.0
                CHANNELS 3 Zrotation Xrotation Yrotation
                JOINT LeftFoot
                {
                    OFFSET 0.0 -10.249656677246094 0.0
                    CHANNELS 3 Zrotation Xrotation Yrotation
                    End Site
                    {
                        OFFSET 0.0 0.0 4.099863052368164
                    }
                }
            }
        }
    }
    JOINT RightHip
    {
        OFFSET -14.563438415527344 0.0 0.0
        CHANNELS 3 Zrotation Xrotation Yrotation
        JOINT RightKnee
        {
            OFFSET 0.0 -39.31314468383789 0.0
            CHANNELS 3 Zrotation Xrotation Yrotation
            JOINT RightAnkle
            {
                OFFSET 0.0 -42.28584671020508 0.0
                CHANNELS 3 Zrotation Xrotation Yrotation
                JOINT RightFoot
                {
                    OFFSET 0.0 -10.249656677246094 0.0
                    CHANNELS 3 Zrotation Xrotation Yrotation
                    End Site
                    {
                        OFFSET 0.0 0.0 4.099863052368164
                    }
                }
            }
        }
    }
}
MOTION
Frames: 6
Frame Time: 0.03333333333333333
3.9000000953674316 -1.7000000476837158 51.20000076293945 -5.247139697271459 2.9085032447183607 -1.6919317655874644 2.187776906354522 -5.672201933842742 0.7573755868514541 1.9450575796018307e-08 -1.1224742851730466e-08 -0.6245592857964424 88.513252678453 38.88040109775946 179.25075183672257 -1.3708776109891585e-06 1.9550851548865613e-06 21.532593151966676 -2.1533943405711202e-06 -6.499967437566623 20.406387065080967 -5.963540027744092e-16 6.3611093629270335e-15 -3.1805546814635168e-15 -83.88395290815298 48.53554840500727 178.89473196963115 2.0117288808973665e-06 -2.581742655628147e-06 -24.103397535885016 179.99999790215662 -51.28910526109947 154.03950664719883 0.0 0.0 1.9878466759146985e-16 9.71082052934106 11.041774638950027 -36.163487071506594 -1.2838028615971417 -4.82904685542236 5.667523609510209 101.53092655892559 -54.38160276635566 155.73000623208083 -3.180554681463516e-15 8.827812596100317e-32 -3.180554681463516e-15 2.7210790594356844 4.296192474033783 18.656812667120665 0.17469662128184185 -0.08698924176819942 -0.059128801013484084 -70.49092584919052 -66.87283644163568 -105.91726130815037 1.5902773407317584e-15 2.2069531490250793e-32 1.5902773407317584e-15
3.9000000953674316 -1.7000000476837158 51.0 -4.714753043742967 4.113677956746328 -2.4097319571184035 1.576918322223156 -6.879484459519176 0.8984478703421459 -2.558782996879646e-08 -2.530292590391359e-07 -0.05890935910943214 88.74229082949375 38.83313224291596 179.23409940314255 -5.314429473279216e-06 7.837670553475525e-07 21.52781754546504 9.410658284993049e-07 -6.551155860291524 20.406389979687727 -5.963540027744092e-16 6.3611093629270335e-15 -3.1805546814635168e-15 -83.87431956202938 48.3077673491506 178.90025599873937 -2.1440634197065874e-07 -1.4621308744626648e-06 -23.8732482114001 -179.9999974678848 -47.99248345872207 153.96808751092345 -6.3611093629270335e-15 -4.275971726236091e-32 7.702905869169454e-16 9.200548735804704 9.730717653623927 -36.027213235764286 -1.1884197698292447 -4.876991611185084 5.786067793119849 101.74250915530035 -53.657215939061636 156.37737679859563 0.0 -1.5902773407317584e-15 0.0 2.355803986313411 2.5417931926928627 18.394435561760183 0.061090714365296506 0.538827061727119 0.36670801124576885 -68.14966933478794 -67.80123215111652 -103.34393785242536 0.0 0.0 0.0
3.799999952316284 -1.7999999523162842 51.0 -5.247137926962613 3.48887762709374 -2.294650271194926 1.8680303064498864 -6.24415331731667 0.7616869828892648 2.072150430394416e-07 2.513701330664189e-07 0.12059750189646541 88.9425054233489 38.210804681192364 179.22828120828098 -1.1621762420781308e-06 -1.6158209342648104e-06 21.4810828365992 -3.5812497784295724e-06 -8.061816400324304 19.472267610276216 1.9878466759146984e-15 -3.975693351829397e-16 1.5902773407317588e-15 -83.43417724100209 48.78958853726139 178.59359230940936 2.2095086725055875e-06 4.229068071561501e-06 -23.754361783301576 179.99999854452702 -49.230926854627555 153.81960404324286 -6.361109362927035e-15 -7.951386703658794e-16 1.987846675914698e-16 9.765666335295569 10.093293656758467 -34.64083901481834 -1.3042175142098704 -4.6687063336675125 5.603244761640156 101.95950441302107 -55.04285652606411 156.4980826283041 0.0 0.0 -3.1805546814635168e-15 2.87224963505015 2.9223312920053264 17.367639919050106 -0.0052150306433805926 0.8074107653673773 0.5674933551913999 -69.15005848651444 -68.72724699906085 -105.244504566478 3.1805546814635176e-15 7.951386703658794e-16 -1.5902773407317588e-15
3.700000047683716 -1.7999999523162842 50.900001525878906 -5.826341011824014 4.064564737416002 -2.2335593128807942 2.26541420601643 -6.80479530817869 0.7001584511307586 9.566258444148795e-08 2.5931037983665177e-07 0.6486252509795534 89.44231531618044 35.01938609815767 178.9943775570065 -6.459546279142778e-06 -2.631919584165589e-06 21.87469749527175 2.63258561480007e-06 -12.135711616300446 20.25731053608185 2.3854160110976376e-15 -3.975693351829396e-16 8.276074308844047e-33 -82.95515533991478 49.26142393778209 178.22969694672327 -3.674964997582593e-08 1.5665178116193917e-06 -23.484836255346796 179.99999929108722 -52.05817414369212 152.67403503146105 6.3611093629270335e-15 4.4139062980501586e-32 7.951386703658792e-16 10.210751511149946 9.058655467629823 -32.57856846891342 -1.307205156561349 -4.091535965924453 4.865309765014731 105.16767818322433 -56.365769085088026 158.80201061672247 -3.180554681463516e-15 -6.361109362927032e-15 3.180554681463516e-15 3.4902607656204316 2.078022516351097 16.933250658647115 -0.24239809944702675 1.044978328029761 0.7692706145349154 -68.52143682026474 -68.94067798879726 -105.88915570936402 4.7708320221952736e-15 7.951386703658792e-16 3.180554681463516e-15
3.700000047683716 -1.7999999523162842 50.900001525878906 -5.826341011824014 4.064564737416002 -2.2335593128807942 2.26541420601643 -6.80479530817869 0.7001584511307586 2.5150290169262317e-07 -7.294430926628851e-09 0.4908865307098094 89.44023564231262 35.131273933483456 178.996839319802 -3.938559152126646e-06 -1.365838265927472e-06 21.941153880873532 -2.2488396506056383e-07 -13.049866722575189 19.20543712260047 2.7829853462805768e-15 -6.361109362927033e-15 3.975693351829397e-16 -82.97751741813022 49.10487051549894 178.25924781867954 -3.674964997582593e-08 1.5665178116193917e-06 -23.484836255346796 -179.99999494219395 -49.6869600998598 153.8151661949999 6.3611093629270335e-15 -5.517382872562698e-32 -9.93923337957349e-16 10.365064471773753 9.063724510041311 -32.711185400029116 -1.536586924250569 -4.257524802484363 5.042835988751922 105.47023848209781 -56.99188999187634 158.82669218409652 3.1805546814635168e-15 8.827812596100317e-32 3.1805546814635168e-15 3.4902607656204316 2.078022516351097 16.933250658647115 -0.24239809944702675 1.044978328029761 0.7692706145349154 -68.52143682026474 -68.94067798879726 -105.88915570936402 4.7708320221952736e-15 7.951386703658792e-16 3.180554681463516e-15
3.700000047683716 -1.7000000476837158 51.099998474121094 -5.885986677779563 3.520958632340002 -2.2273724050060375 2.5241987199952174 -6.442358353144628 0.7507328858726442 -2.2548022725291722e-08 3.960684193694783e-07 0.4219243961887223 89.32665323559088 34.96402156322695 178.78001659318662 2.475192515432734e-06 -9.09294850104367e-09 22.020750509811343 -2.488635965492779e-06 -16.19668778283998 19.41825537250147 7.156248033292912e-15 -5.5659706925611536e-15 -2.3854160110976368e-15 -83.4126326328027 49.10821158940783 178.54637434531546 -3.674964997582593e-08 1.5665178116193917e-06 -23.484836255346796 179.99999920814403 -52.90644520842871 153.92654824434865 6.3611093629270335e-15 0.0 0.0 10.424140112339844 9.783345099772218 -33.16155323216459 -1.4028644087530104 -4.443508280665369 5.436289690731916 103.037665778534 -56.23603321578896 157.64354981791226 0.0 -6.361109362927035e-15 0.0 3.6515014443723826 2.9204071792743678 16.482455732413936 -0.3188541525189557 0.7595722560148773 0.5541455269591755 -66.48782470892286 -69.3342580016133 -103.43436212356556 -4.770832022195277e-15 0.0 0.0
